# xmcd CD database file
#
# Track frame offsets:
#	150
#	12520
#	25910
#	39387
#	53960
#	64775
#	78232
#	92005
#	102985
#	115602
#	128597
#	139645
#
# Disc length: 1993 seconds
#
# Revision: 0
# Processed by: cddbd v1.5.2PL0 Copyright (c) Steve Scherf et al.
# Submitted via: CDex 1.70beta2
#
DISCID=9207c70c
DTITLE=Mel Torme - Comin' Home Baby!
DYEAR=1962
DGENRE=Jazz
TTITLE0=Comin' Home Baby!
TTITLE1=Dat Dere
TTITLE2=The lady’s In Love With You
TTITLE3=Hi-Fly
TTITLE4=Puttin' on the Ritz
TTITLE5=Walkin'
TTITLE6=Moanin'
TTITLE7=Sing You Sinners
TTITLE8=Whisper Not
TTITLE9=On Green Dolphin Street
TTITLE10=Sidney's Soliloquy
TTITLE11=Right Now
EXTD=YEAR: 1962
EXTT0=
EXTT1=
EXTT2=
EXTT3=
EXTT4=
EXTT5=
EXTT6=
EXTT7=
EXTT8=
EXTT9=
EXTT10=
EXTT11=
PLAYORDER=
